<?xml version="1.0" encoding="iso-8859-1"?>
<!-- Generator: Adobe Illustrator 19.0.0, SVG Export Plug-In . SVG Version: 6.00 Build 0)  -->
<svg fill="#FFAB0D" version="1.1" id="Capa_1" xmlns="http://www.w3.org/2000/svg" xmlns:xlink="http://www.w3.org/1999/xlink" x="0px" y="0px"
	 viewBox="0 0 512 512" style="enable-background:new 0 0 512 512;" xml:space="preserve">
<g>
	<g>
		<g>
			<path d="M366.292,215.99L241.417,325.781c-0.167,0.146-0.333,0.292-0.479,0.448c-4.042,4.021-6.271,9.385-6.271,15.104
				c0,11.76,9.563,21.333,21.333,21.333c5.667,0,11.021-2.208,15.563-6.75l109.792-124.875c3.708-4.219,3.5-10.604-0.479-14.583
				C376.896,212.49,370.542,212.281,366.292,215.99z"/>
			<path d="M256,85.333c-141.167,0-256,114.844-256,256c0,26.479,4.104,52.688,12.167,77.917c1.417,4.417,5.521,7.417,10.167,7.417
				h467.333c4.646,0,8.75-3,10.167-7.417C507.896,394.021,512,367.813,512,341.333C512,200.177,397.167,85.333,256,85.333z
				 M458.667,352h10.126c-0.542,10.755-1.628,21.471-3.772,32H46.979c-2.145-10.529-3.23-21.245-3.772-32h10.126
				C59.229,352,64,347.229,64,341.333c0-5.896-4.771-10.667-10.667-10.667H43.207c1.547-31.043,9.645-60.337,23.117-86.522
				l8.822,5.095c1.688,0.969,3.521,1.427,5.333,1.427c3.667,0,7.271-1.906,9.229-5.333c2.958-5.104,1.208-11.625-3.896-14.573
				l-8.81-5.089c16.421-25.323,38.02-46.919,63.342-63.339l5.092,8.823c1.958,3.417,5.563,5.333,9.229,5.333
				c1.813,0,3.646-0.458,5.333-1.427c5.104-2.948,6.854-9.469,3.896-14.573l-5.095-8.827c26.188-13.477,55.487-21.576,86.533-23.122
				v10.126c0,5.896,4.771,10.667,10.667,10.667s10.667-4.771,10.667-10.667V128.54c31.046,1.547,60.345,9.645,86.533,23.121
				l-5.095,8.828c-2.958,5.104-1.208,11.625,3.896,14.573c1.688,0.969,3.521,1.427,5.333,1.427c3.667,0,7.271-1.917,9.229-5.333
				l5.092-8.823c25.323,16.419,46.922,38.016,63.342,63.339l-8.81,5.089c-5.104,2.948-6.854,9.469-3.896,14.573
				c1.958,3.427,5.563,5.333,9.229,5.333c1.812,0,3.646-0.458,5.333-1.427l8.823-5.095c13.473,26.185,21.569,55.479,23.116,86.522
				h-10.126c-5.896,0-10.667,4.771-10.667,10.667C448,347.229,452.771,352,458.667,352z"/>
		</g>
	</g>
</g>
<g>
</g>
<g>
</g>
<g>
</g>
<g>
</g>
<g>
</g>
<g>
</g>
<g>
</g>
<g>
</g>
<g>
</g>
<g>
</g>
<g>
</g>
<g>
</g>
<g>
</g>
<g>
</g>
<g>
</g>
</svg>
