<svg fill="#FFf" height="426pt" viewBox="0 -66 426 426" width="426pt" xmlns="http://www.w3.org/2000/svg"><path d="m212.699219 146.101562c22.699219 0 41.101562-18.402343 41.101562-41.101562s-18.402343-41.101562-41.101562-41.101562-41.097657 18.402343-41.097657 41.101562c.097657 22.699219 18.5 41.101562 41.097657 41.101562zm0 0"/><path d="m360.699219 28.5c-5.800781-1.601562-11.800781-1.800781-17.699219-1.101562-7.5 1-14 5-14 5-12.199219 7-20 19.800781-20.601562 33.902343 12.601562-1.800781 39.203124-8.902343 52.300781-37.800781zm0 0"/><path d="m356.800781 58.101562c-6.902343 6.597657-14.902343 11.898438-23.699219 15.699219-7.300781 3.097657-15 5.300781-22.902343 6.398438 5.300781 17.199219 21.199219 29 39.300781 29 18.398438.199219 34.699219-12 39.601562-29.800781-15.203124-4-26-13.796876-32.300781-21.296876zm0 0"/><path d="m366.101562 47.300781c4.5 5.699219 12.699219 14.097657 24.398438 17.898438-.800781-11.898438-6.800781-22.800781-16.300781-29.898438l-.800781-.601562c-2.097657 4.300781-4.597657 8.699219-7.296876 12.601562zm0 0"/><path d="m136.699219 223.398438v65.601562c0 2.199219 1.800781 4 4 4h67.300781v-51.398438l-24.5-79.800781c-27.601562 7.699219-46.800781 32.898438-46.800781 61.597657zm0 0"/><path d="m148.800781 165.300781c-6.800781-19.5-22.601562-34.601562-42.300781-40.601562l-24.5 88.800781v42.101562h40.699219v-32.203124c0-22.199219 9.5-43.398438 26.101562-58.097657zm-29.800781 20.699219h-13c-3.898438 0-7-3.101562-7-7s3.101562-7 7-7h13c3.898438 0 7 3.101562 7 7s-3.101562 7-7 7zm0 0"/><path d="m379.800781 124.5-11.601562 49.800781c-1.597657 6.898438-6.5 12.597657-13.199219 15.097657v66.203124h67c2.199219 0 4-1.800781 4-4v-65.601562c0-28.601562-18.898438-53.601562-46.199219-61.5zm18.199219 64.5h-17c-3.898438 0-7-3.101562-7-7s3.101562-7 7-7h17c3.898438 0 7 3.101562 7 7s-3.101562 7-7 7zm0 0"/><path d="m246.101562 163.101562-24.101562 78.5v51.398438h62.800781c2.199219 0 4-1.800781 4-4v-65.601562c0-27.097657-17.199219-51.296876-42.699219-60.296876zm18.898438 65.898438h-17c-3.898438 0-7-3.101562-7-7s3.101562-7 7-7h17c3.898438 0 7 3.101562 7 7s-3.101562 7-7 7zm0 0"/><path d="m0 185.898438v65.703124c0 2.199219 1.800781 4 4 4h64v-42.101562l-24.300781-88.199219c-26.097657 8.699219-43.699219 33.097657-43.699219 60.597657zm0 0"/><path d="m88.199219 122h-24.300781c-2.199219 0-4.296876.101562-6.398438.300781l17.601562 63.800781 17.597657-64c-1.597657 0-3-.101562-4.5-.101562zm0 0"/><path d="m224.898438 159.5h-24.296876c-1.101562 0-2.101562 0-3.101562.101562l17.5 57.097657 17.398438-56.800781c-2.5-.296876-5-.398438-7.5-.398438zm0 0"/><path d="m327.800781 174.199219-11.300781-48.5c-18.5 6.601562-33.101562 21.199219-39.601562 39.699219 16.5 14.703124 25.902343 35.800781 25.902343 57.902343v32.199219h38.199219v-66.199219c-6.601562-2.5-11.601562-8.199219-13.199219-15.101562zm0 0"/><path d="m362.101562 122h-24.300781c-2.601562 0-5.101562.199219-7.699219.5l11.296876 48.601562c.703124 3.097657 3.300781 5.398438 6.5 5.5h.5c3-.300781 5.402343-2.5 6-5.5l11.402343-48.902343c-1.101562-.097657-2.402343-.199219-3.699219-.199219zm0 0"/><path d="m76 109.199219c22.601562 0 40.601562-18.097657 41.101562-41.199219 0-22.699219-18.5-41.101562-41.203124-41-22.699219 0-41.097657 18.5-41 41.199219.101562 22.601562 18.5 41 41.101562 41zm0 0"/><path d="m343 23c0-5 4-9 9-9s9 4 9 9c0 0 0 3.199219-.300781 5.5 4.101562 1.300781 9.199219 3.699219 12.601562 6.101562 0 0 .398438.296876.800781.597657l.898438.699219v-12.898438c0-12.699219-10.300781-23-23-23s-23 10.300781-23 23v9.398438c4.199219-2.398438 9-4.097657 14-4.898438zm0 0"/><path d="m343 27.5c-5 .800781-9.800781 2.5-14 4.898438 4.300781-2.5 9.101562-4.199219 14-4.898438zm0 0"/></svg>