<?xml version="1.0" encoding="iso-8859-1"?>
<!-- Generator: Adobe Illustrator 16.0.0, SVG Export Plug-In . SVG Version: 6.00 Build 0)  -->
<!DOCTYPE svg PUBLIC "-//W3C//DTD SVG 1.1//EN" "http://www.w3.org/Graphics/SVG/1.1/DTD/svg11.dtd">
<svg fill="#fff " version="1.1" id="Capa_1" xmlns="http://www.w3.org/2000/svg" xmlns:xlink="http://www.w3.org/1999/xlink" x="0px" y="0px"
	 width="611.99px" height="611.99px" viewBox="0 0 611.99 611.99" style="enable-background:new 0 0 611.99 611.99;"
	 xml:space="preserve">
<g>
	<g>
		<path d="M583.372,611.985h-92.458c-15.774,0-28.617-12.844-28.617-28.619c0-115.826-45.122-224.736-127.052-306.647
			c-81.931-81.94-190.831-127.062-306.627-127.062C12.843,149.658,0,136.825,0,121.06V28.583C0,12.827,12.843,0.005,28.618,0.005
			c155.791,0,302.278,60.684,412.473,170.878C551.296,281.078,611.99,427.556,611.99,583.356
			C612,599.142,599.157,611.985,583.372,611.985z M28.618,20.229c-4.632,0-8.394,3.751-8.394,8.353v92.478
			c0,4.621,3.762,8.373,8.394,8.373c121.196,0,235.173,47.225,320.926,132.977c85.753,85.733,132.978,199.72,132.978,320.946
			c0,4.631,3.762,8.393,8.394,8.393h92.457c4.631,0,8.394-3.762,8.394-8.393c0-150.4-58.592-291.812-164.974-398.174
			C320.41,78.811,179.009,20.229,28.618,20.229z M379.941,611.985h-92.447c-15.765,0-28.598-12.844-28.598-28.619
			c0-61.492-23.956-119.305-67.449-162.809c-43.534-43.514-101.356-67.469-162.829-67.469C12.843,353.089,0,340.245,0,324.47
			v-92.437c0-15.785,12.843-28.618,28.618-28.618c101.427,0,196.837,39.519,268.645,111.297
			c71.758,71.758,111.276,167.156,111.276,268.654C408.539,599.142,395.717,611.985,379.941,611.985z M28.618,223.64
			c-4.632,0-8.394,3.762-8.394,8.393v92.437c0,4.631,3.762,8.393,8.394,8.393c66.873,0,129.771,26.061,177.128,73.396
			c47.316,47.316,73.375,110.205,73.375,177.107c0,4.631,3.752,8.395,8.373,8.395h92.457c4.622,0,8.373-3.764,8.373-8.395
			c0-96.088-37.415-186.41-105.35-254.346C214.979,261.055,124.645,223.64,28.618,223.64z M93.327,611.985
			C41.865,611.985,0,570.108,0,518.638c0-51.463,41.865-93.328,93.327-93.328c51.461,0,93.327,41.865,93.327,93.328
			C186.644,570.108,144.779,611.985,93.327,611.985z M93.327,445.546c-40.308,0-73.103,32.793-73.103,73.092
			c0,40.318,32.794,73.111,73.103,73.111c40.297,0,73.102-32.793,73.102-73.111C166.419,478.339,133.625,445.546,93.327,445.546z"/>
	</g>
</g>
<g>
</g>
<g>
</g>
<g>
</g>
<g>
</g>
<g>
</g>
<g>
</g>
<g>
</g>
<g>
</g>
<g>
</g>
<g>
</g>
<g>
</g>
<g>
</g>
<g>
</g>
<g>
</g>
<g>
</g>
</svg>
